<svg width="259" height="259" viewBox="0 0 259 259" fill="none" xmlns="http://www.w3.org/2000/svg">
<path d="M254.955 30.5126L228.484 4.0447C223.094 -1.34823 214.349 -1.34823 208.958 4.0447L193.291 19.7105L239.291 65.7047L254.958 50.0389C260.352 44.6459 260.352 35.9056 254.958 30.5159L254.955 30.5126Z" fill="#DCDCDD"/>
<path d="M96.6859 185.609L102.966 191.888L72.5039 198.099C72.5039 198.099 72.3253 194.878 68.2143 190.765C64.1001 186.651 60.8788 186.476 60.8788 186.476L67.0908 156.017L73.3709 162.297L199.022 36.6552L187.683 25.3174L62.0251 150.956L52.4069 198.138C51.3807 203.158 55.8197 207.593 60.8366 206.567L108.025 196.95L233.679 71.3116L222.34 59.9737L96.6859 185.612V185.609Z" fill="#DCDCDD"/>
<path d="M204.633 42.2608L78.9771 167.9L91.0777 179.999L216.733 54.3599L204.633 42.2608Z" fill="#DCDCDD"/>
<path d="M205.731 258.967H25.6952C11.5276 258.967 0 247.44 0 233.275V53.2622C0 39.0965 11.5276 27.5703 25.6952 27.5703H149.658C152.135 27.5703 154.142 29.5768 154.142 32.0541C154.142 34.5315 152.135 36.538 149.658 36.538H25.6952C16.4731 36.538 8.97206 44.0381 8.97206 53.259V233.271C8.97206 242.492 16.4731 249.992 25.6952 249.992H205.731C214.953 249.992 222.454 242.492 222.454 233.271V109.325C222.454 106.847 224.461 104.841 226.938 104.841C229.416 104.841 231.423 106.847 231.423 109.325V233.271C231.423 247.437 219.895 258.963 205.727 258.963L205.731 258.967Z" fill="#DCDCDD"/>
</svg>
