<svg width="100" height="54" viewBox="0 0 100 54" fill="none" xmlns="http://www.w3.org/2000/svg">
<path d="M2.54524 40.8613C3.70011 39.5645 5.2679 38.9161 7.2486 38.9161C9.22931 38.9161 10.7971 39.5645 11.952 40.8613C13.1068 42.1581 13.6843 43.9162 13.6843 46.1357C13.6843 48.3551 13.1068 50.1132 11.952 51.41C10.7971 52.7004 9.22931 53.3455 7.2486 53.3455C5.2679 53.3455 3.70011 52.7004 2.54524 51.41C1.39036 50.1132 0.812928 48.3551 0.812928 46.1357C0.812928 43.9162 1.39036 42.1581 2.54524 40.8613ZM10.6358 42.042C9.80352 41.029 8.67445 40.5226 7.2486 40.5226C5.82275 40.5226 4.69046 41.029 3.85173 42.042C3.01945 43.0485 2.6033 44.413 2.6033 46.1357C2.6033 47.8518 3.01945 49.2164 3.85173 50.2293C4.69046 51.2358 5.82275 51.739 7.2486 51.739C8.67445 51.739 9.80352 51.2358 10.6358 50.2293C11.4745 49.2164 11.8939 47.8518 11.8939 46.1357C11.8939 44.413 11.4745 43.0485 10.6358 42.042ZM17.5941 53.1133H15.8521V39.1483H17.5941V45.9615H17.6909L23.8556 39.1483H26.0524L20.3135 45.3324L26.5653 53.1133H24.3394L19.1038 46.5711L17.5941 48.2357V53.1133ZM32.1106 39.1483H36.8043C38.8754 39.1483 40.4915 39.7645 41.6529 40.9968C42.8142 42.2226 43.3948 43.9324 43.3948 46.126C43.3948 48.326 42.8142 50.0422 41.6529 51.2745C40.498 52.5004 38.8818 53.1133 36.8043 53.1133H32.1106V39.1483ZM33.8526 40.7161V51.5455H36.6882C38.2689 51.5455 39.4851 51.081 40.3367 50.1519C41.1883 49.2164 41.6141 47.8809 41.6141 46.1453C41.6141 44.3969 41.1883 43.0549 40.3367 42.1194C39.4915 41.1839 38.2753 40.7161 36.6882 40.7161H33.8526ZM54.2145 51.5455V53.1133H45.5627V39.1483H54.2145V40.7161H47.3046V45.1969H53.8565V46.7453H47.3046V51.5455H54.2145ZM55.8501 49.2712H57.6017C57.6856 50.0261 58.0534 50.6326 58.705 51.0906C59.3631 51.5487 60.1921 51.7778 61.1922 51.7778C62.1341 51.7778 62.9116 51.5552 63.5245 51.11C64.1439 50.6584 64.4535 50.0906 64.4535 49.4067C64.4535 48.8196 64.2374 48.3357 63.8051 47.9551C63.3793 47.5744 62.6954 47.2615 61.7535 47.0163L59.9631 46.5518C58.6727 46.2228 57.7308 45.7647 57.1372 45.1776C56.5436 44.584 56.2468 43.813 56.2468 42.8646C56.2468 41.7033 56.7049 40.7548 57.6211 40.0193C58.5437 39.2838 59.7308 38.9161 61.1825 38.9161C62.5696 38.9161 63.718 39.2903 64.6277 40.0387C65.5374 40.7807 66.0117 41.7355 66.0504 42.9033H64.3084C64.231 42.1549 63.9084 41.5645 63.3406 41.1323C62.7728 40.7 62.0341 40.4839 61.1244 40.4839C60.2212 40.4839 59.4824 40.6968 58.9082 41.1226C58.3405 41.5484 58.0566 42.1033 58.0566 42.7872C58.0566 43.3162 58.263 43.7517 58.6759 44.0937C59.0953 44.4292 59.7792 44.7195 60.7276 44.9647L62.189 45.3518C63.6342 45.7131 64.6729 46.1937 65.3052 46.7937C65.9375 47.3938 66.2536 48.1938 66.2536 49.1938C66.2536 50.4713 65.7826 51.4842 64.8407 52.2326C63.9051 52.9746 62.6341 53.3455 61.0276 53.3455C59.5437 53.3455 58.3308 52.9746 57.3888 52.2326C56.4469 51.4907 55.9339 50.5035 55.8501 49.2712ZM70.0279 53.1133H68.2859V39.1483H70.0279V53.1133ZM84.5154 47.3357C84.5154 49.2261 83.9928 50.7003 82.9476 51.7584C81.9089 52.8165 80.4572 53.3455 78.5927 53.3455C76.6442 53.3455 75.0893 52.6875 73.928 51.3713C72.7731 50.0487 72.1957 48.2777 72.1957 46.0582C72.1957 43.8775 72.7731 42.142 73.928 40.8516C75.0829 39.5613 76.6378 38.9161 78.5927 38.9161C80.1024 38.9161 81.3863 39.3322 82.4444 40.1645C83.509 40.9903 84.1703 42.0968 84.4283 43.484H82.5992C82.3089 42.542 81.8121 41.8129 81.1089 41.2968C80.4121 40.7807 79.5733 40.5226 78.5927 40.5226C77.1539 40.5226 76.0249 41.0129 75.2055 41.9936C74.3925 42.9678 73.9861 44.3195 73.9861 46.0486C73.9861 47.8034 74.399 49.1906 75.2248 50.21C76.0507 51.2294 77.1733 51.739 78.5927 51.739C79.8314 51.739 80.8379 51.3745 81.6121 50.6455C82.3863 49.91 82.7734 48.9583 82.7734 47.7905V47.5389H78.8346V46.0098H84.5154V47.3357ZM88.4736 53.1133H86.751V39.1483H88.4446L96.09 50.1132H96.1771V39.1483H97.8997V53.1133H96.2061L88.5607 42.1871H88.4736V53.1133Z" fill="#050505"/>
<circle cx="50.0001" cy="15.3015" r="15.0602" transform="rotate(90 50.0001 15.3015)" fill="#694FD7"/>
<circle cx="84.9398" cy="15.0602" r="15.0602" transform="rotate(90 84.9398 15.0602)" fill="black"/>
<circle cx="15.0602" cy="15.3011" r="15.0602" transform="rotate(-90 15.0602 15.3011)" fill="#FFC300"/>
</svg>
