<svg width="170" height="85" viewBox="0 0 170 85" fill="none" xmlns="http://www.w3.org/2000/svg">
<path d="M152.231 65.0459C154.073 62.9772 156.574 61.9429 159.734 61.9429C162.893 61.9429 165.394 62.9772 167.237 65.0459C169.079 67.1145 170 69.919 170 73.4594C170 76.9998 169.079 79.8043 167.237 81.873C165.394 83.9313 162.893 84.9605 159.734 84.9605C156.574 84.9605 154.073 83.9313 152.231 81.873C150.389 79.8043 149.468 76.9998 149.468 73.4594C149.468 69.919 150.389 67.1145 152.231 65.0459ZM165.137 66.9293C163.809 65.3134 162.008 64.5055 159.734 64.5055C157.459 64.5055 155.653 65.3134 154.315 66.9293C152.988 68.5348 152.324 70.7115 152.324 73.4594C152.324 76.197 152.988 78.3738 154.315 79.9896C155.653 81.5951 157.459 82.3979 159.734 82.3979C162.008 82.3979 163.809 81.5951 165.137 79.9896C166.475 78.3738 167.144 76.197 167.144 73.4594C167.144 70.7115 166.475 68.5348 165.137 66.9293Z" fill="#050505"/>
<path d="M146.01 84.5901H143.231V62.3135H146.01V84.5901Z" fill="#050505"/>
<path d="M121.772 62.3135H129.26C132.563 62.3135 135.142 63.2963 136.994 65.2621C138.847 67.2175 139.773 69.9449 139.773 73.4441C139.773 76.9536 138.847 79.6912 136.994 81.6569C135.152 83.6124 132.574 84.5901 129.26 84.5901H121.772V62.3135ZM124.551 64.8144V82.0892H129.075C131.596 82.0892 133.536 81.3482 134.895 79.8662C136.253 78.3738 136.932 76.2434 136.932 73.4749C136.932 70.6859 136.253 68.5452 134.895 67.0529C133.546 65.5605 131.606 64.8144 129.075 64.8144H124.551Z" fill="#050505"/>
<path d="M102.539 62.3135V76.5934C102.539 78.3121 103.074 79.7118 104.144 80.7924C105.225 81.8628 106.712 82.3979 108.606 82.3979C110.499 82.3979 111.981 81.8628 113.052 80.7924C114.132 79.7118 114.673 78.3121 114.673 76.5934V62.3135H117.451V76.7786C117.451 79.1972 116.654 81.1681 115.059 82.6913C113.474 84.2042 111.323 84.9606 108.606 84.9606C105.889 84.9606 103.732 84.2042 102.137 82.6913C100.552 81.1681 99.7598 79.1972 99.7598 76.7786V62.3135H102.539Z" fill="#050505"/>
<path d="M89.8 84.5901H87.0212V64.8144H79.9971V62.3135H96.8242V64.8144H89.8V84.5901Z" fill="#050505"/>
<path d="M61.5508 78.4612H64.345C64.4788 79.6654 65.0654 80.6328 66.1049 81.3635C67.1547 82.0942 68.4772 82.4596 70.0724 82.4596C71.575 82.4596 72.8152 82.1045 73.7929 81.3944C74.7809 80.674 75.2749 79.7683 75.2749 78.6774C75.2749 77.7408 74.9301 76.9689 74.2406 76.3617C73.5613 75.7545 72.4704 75.2553 70.9678 74.8642L68.1118 74.1232C66.0534 73.5984 64.5508 72.8676 63.604 71.9311C62.6572 70.9842 62.1837 69.7544 62.1837 68.2415C62.1837 66.3889 62.9144 64.876 64.3759 63.7028C65.8476 62.5295 67.7413 61.9429 70.057 61.9429C72.2697 61.9429 74.1016 62.5398 75.5528 63.7336C77.0039 64.9172 77.7604 66.4404 77.8221 68.3032H75.0433C74.9198 67.1094 74.4053 66.1677 73.4996 65.4781C72.5939 64.7886 71.4155 64.4438 69.9643 64.4438C68.5235 64.4438 67.3451 64.7834 66.4291 65.4627C65.5234 66.1419 65.0706 67.027 65.0706 68.118C65.0706 68.9619 65.3999 69.6566 66.0586 70.2021C66.7276 70.7372 67.8185 71.2004 69.3314 71.5914L71.6625 72.209C73.9679 72.7853 75.6248 73.552 76.6334 74.5092C77.642 75.4663 78.1463 76.7425 78.1463 78.3377C78.1463 80.3755 77.395 81.9913 75.8924 83.1852C74.4001 84.3687 72.3726 84.9605 69.81 84.9605C67.4428 84.9605 65.508 84.3687 64.0054 83.1852C62.5028 82.0016 61.6846 80.427 61.5508 78.4612Z" fill="#050505"/>
<path d="M45.4331 84.5901H37.0195V62.3135H45.464C47.368 62.3135 48.9066 62.8229 50.0798 63.8418C51.2634 64.8607 51.8552 66.2038 51.8552 67.8711C51.8552 69.034 51.4795 70.0889 50.7282 71.0358C49.9872 71.9723 49.0815 72.5384 48.0112 72.7339V72.8574C49.5241 73.053 50.7282 73.6448 51.6236 74.6328C52.5293 75.6208 52.9821 76.8558 52.9821 78.3378C52.9821 80.3036 52.3132 81.837 50.9752 82.9383C49.6476 84.0395 47.8002 84.5901 45.4331 84.5901ZM39.7983 64.7681V71.9157H43.9665C45.6132 71.9157 46.8688 71.5967 47.7333 70.9586C48.6081 70.3205 49.0455 69.3994 49.0455 68.1952C49.0455 67.094 48.6802 66.2501 47.9494 65.6635C47.2187 65.0665 46.1792 64.7681 44.831 64.7681H39.7983ZM39.7983 82.1355H45.0163C46.6938 82.1355 47.9649 81.801 48.8294 81.1321C49.6939 80.4631 50.1262 79.4854 50.1262 78.1989C50.1262 75.6054 48.3354 74.3086 44.7538 74.3086H39.7983V82.1355Z" fill="#050505"/>
<path d="M18.6172 68.7355C18.6172 66.7903 19.317 65.1745 20.7167 63.888C22.1164 62.5913 23.866 61.9429 25.9655 61.9429C27.9519 61.9429 29.6346 62.5347 31.0137 63.7182C32.3928 64.9018 33.0823 66.3478 33.0823 68.0562C33.0823 69.2912 32.7427 70.4799 32.0634 71.6223C31.3842 72.7647 30.108 74.3033 28.2349 76.2382L22.6001 82.0582V82.12H33.4528V84.59H18.7561V82.6757L26.5985 74.4165C28.0908 72.8419 29.0788 71.6481 29.5625 70.835C30.0565 70.0219 30.3035 69.1523 30.3035 68.226C30.3035 67.1557 29.8713 66.2448 29.0068 65.4935C28.1526 64.7422 27.1131 64.3666 25.8884 64.3666C24.5813 64.3666 23.4904 64.7834 22.6156 65.617C21.7408 66.4507 21.3034 67.4902 21.3034 68.7355V68.7509H18.6172V68.7355Z" fill="#050505"/>
<path d="M8.41356 84.5901H0V62.3135H8.44443C10.3484 62.3135 11.887 62.8229 13.0603 63.8418C14.2439 64.8607 14.8356 66.2038 14.8356 67.8711C14.8356 69.034 14.46 70.0889 13.7087 71.0358C12.9677 71.9723 12.062 72.5384 10.9917 72.7339V72.8574C12.5046 73.053 13.7087 73.6448 14.6041 74.6328C15.5098 75.6208 15.9626 76.8558 15.9626 78.3378C15.9626 80.3036 15.2936 81.837 13.9557 82.9383C12.6281 84.0395 10.7807 84.5901 8.41356 84.5901ZM2.77879 64.7681V71.9157H6.94697C8.59366 71.9157 9.84927 71.5967 10.7138 70.9586C11.5886 70.3205 12.026 69.3994 12.026 68.1952C12.026 67.094 11.6606 66.2501 10.9299 65.6635C10.1992 65.0665 9.15971 64.7681 7.81149 64.7681H2.77879ZM2.77879 82.1355H7.99674C9.6743 82.1355 10.9453 81.801 11.8099 81.1321C12.6744 80.4631 13.1066 79.4854 13.1066 78.1989C13.1066 75.6054 11.3158 74.3086 7.7343 74.3086H2.77879V82.1355Z" fill="#050505"/>
<path d="M25.6579 0C11.5242 0 0.0662994 11.4555 0.0662994 25.5863C0.0662994 39.7172 11.5242 51.1727 25.6579 51.1727C34.3087 51.1727 41.9494 46.8843 46.5863 40.3139C47.6619 38.7861 48.9737 37.4156 50.5412 36.4058C52.7842 34.9566 55.0207 34.4189 57.2637 34.7993C59.7166 35.2124 61.8613 36.7468 63.1533 38.8648C67.646 46.2416 75.7589 51.1727 85.0328 51.1727C94.2804 51.1727 102.387 46.2679 106.879 38.9107C108.171 36.7992 110.296 35.2648 112.736 34.8189C114.966 34.4124 117.203 34.9042 119.433 36.3074C121.02 37.3041 122.338 38.6811 123.414 40.2221C128.346 47.2777 136.741 51.7366 146.139 51.1202C158.778 50.2875 169.035 40.091 169.934 27.4617C170.996 12.4784 159.158 0 144.408 0C135.888 0 128.333 4.16385 123.683 10.5703C122.738 11.8686 121.636 13.0489 120.344 14.0063C116.96 16.5046 113.576 16.9242 110.192 15.2587C108.722 14.5374 107.555 13.3309 106.683 11.9473C102.157 4.76711 94.1492 0 85.0328 0C75.8901 0 67.8689 4.79334 63.3435 12.0063C61.9859 14.1702 59.7691 15.7243 57.2506 16.1439C54.7321 16.5636 52.1415 15.8029 49.5836 13.8554C48.3244 12.8915 47.2291 11.7309 46.2912 10.4522C41.6346 4.11795 34.1316 0 25.6579 0Z" fill="url(#paint0_linear_2723_123)"/>
<defs>
<linearGradient id="paint0_linear_2723_123" x1="170" y1="25.5885" x2="0.0662994" y2="25.5885" gradientUnits="userSpaceOnUse">
<stop stop-color="#FCC105"/>
<stop offset="0.496855" stop-color="#451DEB"/>
<stop offset="1" stop-color="white"/>
</linearGradient>
</defs>
</svg>
