<svg width="1811" height="1794" viewBox="0 0 1811 1794" fill="none" xmlns="http://www.w3.org/2000/svg">
<path d="M129.618 700.131C-179.392 199.101 92.058 -124.999 648.028 46.161C730.108 64.441 820.968 64.461 893.068 112.061C940.908 145.971 1004.67 249.041 928.628 288.621C848.658 321.311 759.098 279.811 681.428 257.351C527.018 189.801 337.458 203.151 328.808 409.001C324.268 568.421 408.438 727.941 535.298 822.951C617.568 889.171 780.658 932.421 838.638 815.311C906.768 642.741 611.658 498.961 661.398 388.911C679.038 354.871 721.708 346.721 756.618 346.631C979.588 355.101 1126.62 553.821 1315.89 645.041C1374.98 677.631 1517.06 724.731 1469.46 601.911C1419.42 484.701 1305.42 412.271 1206.68 338.871C991.218 208.651 1063.83 72.061 1295.24 65.101C1471.2 61.071 1640.97 118.131 1810.75 156.771V230.471C1620.09 191.651 1424.78 112.251 1227.23 145.251C1205.81 150.861 1155.83 160.931 1149.02 184.961C1148.04 196.131 1163.38 210.161 1170.31 217.291C1278.89 314.851 1416.67 382.711 1499.76 506.841C1573.33 598.841 1577.33 761.271 1424.27 753.711C1359.54 749.471 1297.38 718.861 1242.04 687.091C1091.96 606.821 907.778 397.421 728.998 422.271C725.408 427.911 746.878 450.981 750.528 455.481C761.398 468.861 772.918 481.701 784.218 494.721C882.028 600.061 989.498 781.921 861.888 905.111C519.868 1144.16 96.278 526.181 317.288 233.761C487.968 44.011 688.458 222.571 880.618 227.551C902.358 229.511 877.608 197.521 872.848 191.451C824.778 130.381 683.278 132.461 607.478 111.701C478.648 89.701 340.508 44.831 212.938 94.191C15.0079 177.261 58.048 432.581 148.148 582.601C210.668 694.431 288.348 823.341 228.828 952.651C172.748 1064.96 103.468 1203.85 197.248 1316.54C206.618 1328.65 217.118 1339.87 228.388 1350.23C230.168 1351.86 239.278 1362.25 242.428 1361.67C249.738 1076.88 648.068 1077.2 631.188 1332.34C604.258 1455.1 456.618 1509 343.428 1488.47C341.068 1490.92 354.688 1512.65 356.358 1515.67C372.788 1545.25 393.158 1572.58 416.288 1597.26C567.768 1771.87 857.108 1781.33 832.288 1490.39C802.458 1266.42 766.698 914.561 1103.16 968.851C1133.07 978.711 1118.45 970.771 1132.42 936.151C1150.35 884.731 1189.02 839.291 1241.23 820.821C1339.36 785.941 1489.08 851.941 1489.22 966.181C1473.23 1087.78 1317.83 1096.76 1222.54 1072.69C1191.32 1063.05 1192.08 1062.57 1203.5 1094.04C1238.86 1196.44 1337.05 1278.08 1446.55 1285.07C1548.19 1293.86 1553.46 1206.58 1553.56 1129.2C1557.45 941.641 1607.41 711.811 1810.73 650.531V727.141C1804.44 728.771 1795.27 734.911 1791.34 736.861C1731.04 764.691 1690.26 821.031 1668.32 882.241C1598.39 1016 1673.97 1266.99 1541.09 1338.2C1352.13 1416.99 1138.38 1234.86 1119.06 1046.94C970.278 998.021 891.138 1080.34 884.388 1226.99C876.278 1384.39 958.368 1572.3 847.668 1709.76C751.048 1829.38 570.798 1808.79 457.058 1725.54C360.128 1662.56 287.048 1565.69 253.438 1455.91C39.0679 1332.89 44.6179 1137.46 155.078 941.461C199.028 862.371 172.088 773.541 129.598 700.121L129.618 700.131ZM1193.34 990.911C1196.81 996.481 1221.86 998.671 1228.3 1000.15C1254.15 1006.1 1280.99 1011.41 1307.63 1011.5C1391.34 1016.43 1471.75 959.981 1367.34 902.021C1303.4 862.941 1221.77 887.841 1199.99 961.761C1198.1 967.231 1190.02 985.571 1193.35 990.921L1193.34 990.911ZM356.198 1416.97C470.958 1448.93 656.028 1321.02 504.808 1227.54C410.268 1180.98 306.808 1270.11 315.478 1369.25C312.568 1410.52 316.998 1410.84 356.198 1416.97Z" fill="#F3F6FF" fill-opacity="0.5"/>
</svg>
