<svg width="1794" height="1563" viewBox="0 0 1794 1563" fill="none" xmlns="http://www.w3.org/2000/svg">
<path d="M700.131 129.618C199.101 -179.392 -124.999 92.0581 46.161 648.028C64.441 730.108 64.461 820.968 112.061 893.068C145.971 940.908 249.041 1004.67 288.621 928.628C321.311 848.658 279.811 759.098 257.351 681.428C189.801 527.018 203.151 337.458 409.001 328.808C568.421 324.268 727.941 408.438 822.951 535.298C889.171 617.568 932.421 780.658 815.311 838.638C642.741 906.768 498.961 611.658 388.911 661.398C354.871 679.038 346.721 721.708 346.631 756.618C355.101 979.588 553.821 1126.62 645.041 1315.89C677.631 1374.98 724.731 1517.06 601.911 1469.46C484.701 1419.42 412.271 1305.42 338.871 1206.68C208.651 991.218 72.061 1063.83 65.101 1295.24C61.071 1471.2 118.131 1640.97 156.771 1810.75L230.471 1810.75C191.651 1620.09 112.251 1424.78 145.251 1227.23C150.861 1205.81 160.931 1155.83 184.961 1149.02C196.131 1148.04 210.161 1163.38 217.291 1170.31C314.851 1278.89 382.711 1416.67 506.841 1499.76C598.841 1573.33 761.271 1577.33 753.711 1424.27C749.471 1359.54 718.861 1297.38 687.091 1242.04C606.821 1091.96 397.421 907.778 422.271 728.998C427.911 725.408 450.981 746.878 455.481 750.528C468.861 761.398 481.701 772.918 494.721 784.218C600.061 882.028 781.921 989.498 905.111 861.888C1144.16 519.868 526.181 96.2781 233.761 317.288C44.011 487.968 222.571 688.458 227.551 880.618C229.511 902.358 197.521 877.608 191.451 872.848C130.381 824.778 132.461 683.278 111.701 607.478C89.701 478.648 44.831 340.508 94.191 212.938C177.261 15.0081 432.581 58.0481 582.601 148.148C694.431 210.668 823.341 288.348 952.651 228.828C1064.96 172.748 1203.85 103.468 1316.54 197.248C1328.65 206.618 1339.87 217.118 1350.23 228.388C1351.86 230.168 1362.25 239.278 1361.67 242.428C1076.88 249.738 1077.2 648.068 1332.34 631.188C1455.1 604.258 1509 456.618 1488.47 343.428C1490.92 341.068 1512.65 354.688 1515.67 356.358C1545.25 372.788 1572.58 393.158 1597.26 416.288C1771.87 567.768 1781.33 857.108 1490.39 832.288C1266.42 802.458 914.561 766.698 968.851 1103.16C978.711 1133.07 970.771 1118.45 936.151 1132.42C884.731 1150.35 839.291 1189.02 820.821 1241.23C785.941 1339.36 851.941 1489.08 966.181 1489.22C1087.78 1473.23 1096.76 1317.83 1072.69 1222.54C1063.05 1191.32 1062.57 1192.08 1094.04 1203.5C1196.44 1238.86 1278.08 1337.05 1285.07 1446.55C1293.86 1548.19 1206.58 1553.46 1129.2 1553.56C941.641 1557.45 711.811 1607.41 650.531 1810.73L727.141 1810.73C728.771 1804.44 734.911 1795.27 736.861 1791.34C764.691 1731.04 821.031 1690.26 882.241 1668.32C1016 1598.39 1266.99 1673.97 1338.2 1541.09C1416.99 1352.13 1234.86 1138.38 1046.94 1119.06C998.021 970.278 1080.34 891.138 1226.99 884.388C1384.39 876.278 1572.3 958.368 1709.76 847.668C1829.38 751.048 1808.79 570.798 1725.54 457.058C1662.56 360.128 1565.69 287.048 1455.91 253.438C1332.89 39.068 1137.46 44.6181 941.461 155.078C862.371 199.028 773.541 172.088 700.121 129.598L700.131 129.618ZM990.911 1193.34C996.481 1196.81 998.671 1221.86 1000.15 1228.3C1006.1 1254.15 1011.41 1280.99 1011.5 1307.63C1016.43 1391.34 959.981 1471.75 902.021 1367.34C862.941 1303.4 887.841 1221.77 961.761 1199.99C967.231 1198.1 985.571 1190.02 990.921 1193.35L990.911 1193.34ZM1416.97 356.198C1448.93 470.958 1321.02 656.028 1227.54 504.808C1180.98 410.268 1270.11 306.808 1369.25 315.478C1410.52 312.568 1410.84 316.998 1416.97 356.198Z" fill="#F3F6FF" fill-opacity="0.5"/>
</svg>
