<svg width="33" height="25" viewBox="0 0 33 25" fill="none" xmlns="http://www.w3.org/2000/svg">
  <path d="M0.994691 1.86175L12.0566 11.5769C12.328 11.816 12.328 12.2385 12.0566 12.4777L0.994691 22.1913C0.607378 22.5317 0 22.2559 0 21.7409V2.31214C0 1.79719 0.607378 1.52138 0.994691 1.86175ZM15.83 12.7139L2.54688 1.04897C2.13169 0.683667 2.3899 0 2.94299 0H29.5092C30.0623 0 30.3205 0.685134 29.9053 1.04897L16.6222 12.7139C16.3963 12.9119 16.0574 12.9119 15.8314 12.7139H15.83ZM13.4137 13.4621C13.6396 13.264 13.9785 13.264 14.2044 13.4621L15.6862 14.7634C15.8402 14.8984 16.0324 14.9673 16.2261 14.9673C16.4197 14.9673 16.6105 14.8998 16.766 14.7634L18.2477 13.4621C18.4737 13.264 18.8126 13.264 19.0385 13.4621L29.9038 23.0041C30.319 23.3694 30.0608 24.053 29.5077 24.053H2.94153C2.38843 24.053 2.13022 23.3679 2.54541 23.0041L13.4122 13.4621H13.4137ZM20.3941 11.5769L31.456 1.86175C31.8433 1.52138 32.4507 1.79719 32.4507 2.31214V21.7424C32.4507 22.2573 31.8433 22.5331 31.456 22.1928L20.3941 12.4777C20.1227 12.2385 20.1227 11.816 20.3941 11.5769Z" fill="black" />
</svg>