<svg width="33" height="33" viewBox="0 0 33 33" fill="none" xmlns="http://www.w3.org/2000/svg">
  <path d="M32.6144 25.8748C32.6144 27.7343 31.862 29.4165 30.6464 30.6374C29.4291 31.8565 27.7469 32.618 25.8893 32.618C18.8856 32.618 12.3396 28.9299 8.01478 24.6014C3.68633 20.2748 0 13.7306 0 6.72511C0 4.86747 0.759695 3.18529 1.97882 1.96978C3.19795 0.752459 4.88194 0 6.74139 0C7.71814 0 8.64786 0.208012 9.48533 0.582433C11.8404 1.63334 13.4828 3.99563 13.4828 6.74139C13.4828 9.48714 11.8458 11.8422 9.49799 12.8949C10.2902 14.7399 12.421 17.397 13.821 18.7952C15.221 20.1952 17.8763 22.326 19.7213 23.1182C20.774 20.7686 23.1345 19.1335 25.8748 19.1335C28.6206 19.1335 30.9829 20.774 32.0338 23.1291C32.4082 23.9666 32.6162 24.8963 32.6162 25.873L32.6144 25.8748Z" fill="black" />
</svg>