<svg width="30" height="30" viewBox="0 0 30 30" fill="none" xmlns="http://www.w3.org/2000/svg">
  <path d="M14.04 29.0947C13.3157 29.0699 12.6049 28.9931 11.9111 28.8662C10.371 27.2102 9.09408 25.3062 8.14844 23.2197C9.92616 22.3087 11.9236 21.7666 14.04 21.6914V29.0947ZM15.0537 21.6914C17.0931 21.7637 19.0217 22.2702 20.75 23.1221C19.7908 25.2674 18.4831 27.222 16.8984 28.915C16.2951 29.013 15.6795 29.0733 15.0537 29.0947V21.6914ZM21.6455 23.6045C22.552 24.1363 23.3933 24.767 24.1553 25.4814C22.5655 26.8796 20.6692 27.9368 18.5791 28.5381C19.8065 27.0451 20.8408 25.3879 21.6455 23.6045ZM7.26074 23.7158C8.04114 25.4199 9.0325 27.007 10.2012 28.4443C8.23479 27.83 6.44835 26.8094 4.93848 25.4814C5.64763 24.8164 6.42543 24.2235 7.26074 23.7158ZM5.27441 15.0547C5.33598 17.7796 5.89327 20.3818 6.85742 22.7764C5.89735 23.3475 5.0061 24.0221 4.19922 24.7852C1.70795 22.2671 0.129733 18.8451 0 15.0547H5.27441ZM29.0947 15.0547C28.965 18.8453 27.3861 22.2671 24.8945 24.7852C24.0341 23.9715 23.0784 23.2573 22.0449 22.6631C22.9811 20.2999 23.5205 17.7365 23.5811 15.0547H29.0947ZM14.04 20.6768C11.7828 20.7515 9.65104 21.3219 7.75098 22.2842C6.86195 20.0382 6.34941 17.6025 6.28906 15.0547H14.04V20.6768ZM22.5674 15.0547C22.5079 17.5654 22.0079 19.9668 21.1426 22.1855C19.2933 21.2835 17.2323 20.7487 15.0537 20.6768V15.0547H22.5674ZM4.21191 4.2959C5.0176 5.05606 5.90726 5.72777 6.86523 6.29688C5.89575 8.69759 5.33599 11.3077 5.27441 14.041H0C0.129913 10.2437 1.7128 6.81525 4.21191 4.2959ZM7.75977 6.78809C9.65779 7.74779 11.786 8.31695 14.04 8.3916V14.041H6.28906C6.34945 11.4844 6.86521 9.04063 7.75977 6.78809ZM24.8818 4.2959C27.3812 6.8153 28.9648 10.2435 29.0947 14.041H23.5811C23.5204 11.3508 22.9786 8.77954 22.0371 6.41016C23.0685 5.81794 24.0225 5.10663 24.8818 4.2959ZM21.1348 6.88672C22.0054 9.11195 22.5079 11.5216 22.5674 14.041H15.0537V8.3916C17.2294 8.31974 19.2874 7.78655 21.1348 6.88672ZM14.04 7.37793C11.927 7.30287 9.93283 6.76192 8.15723 5.85352C9.10168 3.77565 10.3747 1.87876 11.9092 0.228516C12.6035 0.101423 13.3151 0.0248285 14.04 0V7.37793ZM15.0537 0C15.6802 0.0214171 16.2965 0.0825043 16.9004 0.180664C18.4792 1.86784 19.7832 3.81476 20.7412 5.95117C19.0151 6.80042 17.0898 7.30579 15.0537 7.37793V0ZM18.5811 0.556641C20.6643 1.15616 22.5551 2.20906 24.1416 3.60059C23.3809 4.312 22.541 4.93912 21.6367 5.46875C20.8336 3.69376 19.8033 2.04348 18.5811 0.556641ZM10.1992 0.651367C9.03575 2.08266 8.04819 3.66253 7.26953 5.3584C6.43628 4.85282 5.6601 4.26274 4.95215 3.60059C6.45851 2.2792 8.2398 1.26383 10.1992 0.651367Z" fill="black" />
</svg>